<mxfile host="app.diagrams.net" modified="2022-11-28T17:25:49.488Z" agent="5.0 (Macintosh; Intel Mac OS X 10_14_6) AppleWebKit/537.36 (KHTML, like Gecko) Chrome/107.0.0.0 Safari/537.36" version="20.6.0" etag="Zm43exPoPGdxqRV6Fh9u" type="github">
  <diagram id="bn8pO_-y90N5bYkg9eif" name="第 1 页">
    <mxGraphModel dx="3530" dy="1689" grid="1" gridSize="10" guides="1" tooltips="1" connect="1" arrows="1" fold="1" page="1" pageScale="1" pageWidth="827" pageHeight="1169" math="0" shadow="0">
      <root>
        <mxCell id="0" />
        <mxCell id="1" parent="0" />
        <mxCell id="MbTcnOZPTZx9RcXJn9nr-1" style="edgeStyle=orthogonalEdgeStyle;rounded=0;orthogonalLoop=1;jettySize=auto;html=1;fontSize=15;strokeWidth=3;sketch=1;" edge="1" parent="1" source="MbTcnOZPTZx9RcXJn9nr-2">
          <mxGeometry relative="1" as="geometry">
            <mxPoint x="220" y="1880" as="targetPoint" />
          </mxGeometry>
        </mxCell>
        <mxCell id="MbTcnOZPTZx9RcXJn9nr-2" value="proposer&lt;br&gt;/acceptor" style="rounded=1;whiteSpace=wrap;html=1;strokeWidth=2;fillWeight=4;hachureGap=8;hachureAngle=45;fillColor=#d5e8d4;sketch=0;strokeColor=#82b366;fontSize=15;fontStyle=1" vertex="1" parent="1">
          <mxGeometry x="160" y="240" width="120" height="60" as="geometry" />
        </mxCell>
        <mxCell id="MbTcnOZPTZx9RcXJn9nr-3" style="edgeStyle=orthogonalEdgeStyle;rounded=0;orthogonalLoop=1;jettySize=auto;html=1;fontSize=15;strokeWidth=3;sketch=1;" edge="1" parent="1" source="MbTcnOZPTZx9RcXJn9nr-4">
          <mxGeometry relative="1" as="geometry">
            <mxPoint x="420" y="1880" as="targetPoint" />
          </mxGeometry>
        </mxCell>
        <mxCell id="MbTcnOZPTZx9RcXJn9nr-4" value="acceptor" style="rounded=1;whiteSpace=wrap;html=1;strokeWidth=2;fillWeight=4;hachureGap=8;hachureAngle=45;fillColor=#dae8fc;sketch=0;strokeColor=#6c8ebf;fontSize=15;fontStyle=1" vertex="1" parent="1">
          <mxGeometry x="360" y="240" width="120" height="60" as="geometry" />
        </mxCell>
        <mxCell id="MbTcnOZPTZx9RcXJn9nr-5" style="edgeStyle=orthogonalEdgeStyle;rounded=0;orthogonalLoop=1;jettySize=auto;html=1;fontSize=15;strokeWidth=3;sketch=1;" edge="1" parent="1" source="MbTcnOZPTZx9RcXJn9nr-6">
          <mxGeometry relative="1" as="geometry">
            <mxPoint x="620" y="1880" as="targetPoint" />
          </mxGeometry>
        </mxCell>
        <mxCell id="MbTcnOZPTZx9RcXJn9nr-6" value="acceptor" style="rounded=1;whiteSpace=wrap;html=1;strokeWidth=2;fillWeight=4;hachureGap=8;hachureAngle=45;fillColor=#dae8fc;sketch=0;strokeColor=#6c8ebf;fontSize=15;fontStyle=1" vertex="1" parent="1">
          <mxGeometry x="560" y="240" width="120" height="60" as="geometry" />
        </mxCell>
        <mxCell id="MbTcnOZPTZx9RcXJn9nr-7" style="edgeStyle=orthogonalEdgeStyle;rounded=0;orthogonalLoop=1;jettySize=auto;html=1;fontSize=15;strokeWidth=3;sketch=1;" edge="1" parent="1" source="MbTcnOZPTZx9RcXJn9nr-8">
          <mxGeometry relative="1" as="geometry">
            <mxPoint x="820" y="1880" as="targetPoint" />
          </mxGeometry>
        </mxCell>
        <mxCell id="MbTcnOZPTZx9RcXJn9nr-8" value="acceptor" style="rounded=1;whiteSpace=wrap;html=1;strokeWidth=2;fillWeight=4;hachureGap=8;hachureAngle=45;fillColor=#dae8fc;sketch=0;strokeColor=#6c8ebf;fontSize=15;fontStyle=1" vertex="1" parent="1">
          <mxGeometry x="760" y="240" width="120" height="60" as="geometry" />
        </mxCell>
        <mxCell id="MbTcnOZPTZx9RcXJn9nr-9" style="edgeStyle=orthogonalEdgeStyle;rounded=0;orthogonalLoop=1;jettySize=auto;html=1;fontSize=15;strokeWidth=3;sketch=1;" edge="1" parent="1" source="MbTcnOZPTZx9RcXJn9nr-10">
          <mxGeometry relative="1" as="geometry">
            <mxPoint x="1020" y="1880" as="targetPoint" />
          </mxGeometry>
        </mxCell>
        <mxCell id="MbTcnOZPTZx9RcXJn9nr-10" value="proposer&lt;br&gt;/acceptor" style="rounded=1;whiteSpace=wrap;html=1;strokeWidth=2;fillWeight=4;hachureGap=8;hachureAngle=45;fillColor=#d5e8d4;sketch=0;strokeColor=#82b366;fontSize=15;fontStyle=1" vertex="1" parent="1">
          <mxGeometry x="960" y="240" width="120" height="60" as="geometry" />
        </mxCell>
        <mxCell id="MbTcnOZPTZx9RcXJn9nr-11" value="" style="endArrow=classic;html=1;rounded=0;sketch=1;strokeWidth=3;fontSize=14;" edge="1" parent="1">
          <mxGeometry width="50" height="50" relative="1" as="geometry">
            <mxPoint x="220" y="440" as="sourcePoint" />
            <mxPoint x="420" y="440" as="targetPoint" />
          </mxGeometry>
        </mxCell>
        <mxCell id="MbTcnOZPTZx9RcXJn9nr-12" value="(k1,null)" style="text;strokeColor=none;fillColor=none;html=1;fontSize=14;fontStyle=1;verticalAlign=middle;align=center;sketch=0;" vertex="1" parent="1">
          <mxGeometry x="200" y="320" width="100" height="40" as="geometry" />
        </mxCell>
        <mxCell id="MbTcnOZPTZx9RcXJn9nr-13" value="" style="endArrow=classic;html=1;rounded=0;sketch=1;strokeWidth=3;fontSize=15;" edge="1" parent="1">
          <mxGeometry width="50" height="50" relative="1" as="geometry">
            <mxPoint x="220" y="520" as="sourcePoint" />
            <mxPoint x="620" y="520" as="targetPoint" />
            <Array as="points" />
          </mxGeometry>
        </mxCell>
        <mxCell id="MbTcnOZPTZx9RcXJn9nr-14" value="" style="endArrow=classic;html=1;rounded=0;sketch=1;strokeWidth=3;fontSize=15;" edge="1" parent="1">
          <mxGeometry width="50" height="50" relative="1" as="geometry">
            <mxPoint x="220" y="600" as="sourcePoint" />
            <mxPoint x="820" y="600" as="targetPoint" />
          </mxGeometry>
        </mxCell>
        <mxCell id="MbTcnOZPTZx9RcXJn9nr-15" value="(k1,null)" style="text;strokeColor=none;fillColor=none;html=1;fontSize=14;fontStyle=1;verticalAlign=middle;align=center;sketch=0;" vertex="1" parent="1">
          <mxGeometry x="400" y="320" width="100" height="40" as="geometry" />
        </mxCell>
        <mxCell id="MbTcnOZPTZx9RcXJn9nr-16" value="(k1,null)" style="text;strokeColor=none;fillColor=none;html=1;fontSize=14;fontStyle=1;verticalAlign=middle;align=center;sketch=0;" vertex="1" parent="1">
          <mxGeometry x="600" y="320" width="100" height="40" as="geometry" />
        </mxCell>
        <mxCell id="MbTcnOZPTZx9RcXJn9nr-17" value="(k1,null)" style="text;strokeColor=none;fillColor=none;html=1;fontSize=14;fontStyle=1;verticalAlign=middle;align=center;sketch=0;" vertex="1" parent="1">
          <mxGeometry x="800" y="320" width="100" height="40" as="geometry" />
        </mxCell>
        <mxCell id="MbTcnOZPTZx9RcXJn9nr-18" value="" style="endArrow=classic;html=1;rounded=0;sketch=1;strokeWidth=3;fontSize=15;" edge="1" parent="1">
          <mxGeometry width="50" height="50" relative="1" as="geometry">
            <mxPoint x="420" y="479.3299999999999" as="sourcePoint" />
            <mxPoint x="220" y="479.3299999999999" as="targetPoint" />
          </mxGeometry>
        </mxCell>
        <mxCell id="MbTcnOZPTZx9RcXJn9nr-19" value="" style="endArrow=classic;html=1;rounded=0;sketch=1;strokeWidth=3;fontSize=15;" edge="1" parent="1">
          <mxGeometry width="50" height="50" relative="1" as="geometry">
            <mxPoint x="620" y="560" as="sourcePoint" />
            <mxPoint x="220" y="560" as="targetPoint" />
          </mxGeometry>
        </mxCell>
        <mxCell id="MbTcnOZPTZx9RcXJn9nr-20" value="" style="endArrow=classic;html=1;rounded=0;sketch=1;strokeWidth=3;fontSize=15;" edge="1" parent="1">
          <mxGeometry width="50" height="50" relative="1" as="geometry">
            <mxPoint x="820" y="640" as="sourcePoint" />
            <mxPoint x="220" y="640" as="targetPoint" />
          </mxGeometry>
        </mxCell>
        <mxCell id="MbTcnOZPTZx9RcXJn9nr-21" value="" style="endArrow=classic;html=1;rounded=0;sketch=1;strokeWidth=3;fontSize=14;" edge="1" parent="1">
          <mxGeometry width="50" height="50" relative="1" as="geometry">
            <mxPoint x="220" y="1080.0000000000005" as="sourcePoint" />
            <mxPoint x="420" y="1080.0000000000005" as="targetPoint" />
          </mxGeometry>
        </mxCell>
        <mxCell id="MbTcnOZPTZx9RcXJn9nr-22" value="" style="endArrow=classic;html=1;rounded=0;sketch=1;strokeWidth=3;fontSize=15;" edge="1" parent="1">
          <mxGeometry width="50" height="50" relative="1" as="geometry">
            <mxPoint x="220" y="1160.0000000000005" as="sourcePoint" />
            <mxPoint x="620" y="1160.0000000000005" as="targetPoint" />
            <Array as="points" />
          </mxGeometry>
        </mxCell>
        <mxCell id="MbTcnOZPTZx9RcXJn9nr-23" value="(k1,n1)" style="text;strokeColor=none;fillColor=none;html=1;fontSize=14;fontStyle=1;verticalAlign=middle;align=center;sketch=0;" vertex="1" parent="1">
          <mxGeometry x="130" y="400" width="100" height="40" as="geometry" />
        </mxCell>
        <mxCell id="MbTcnOZPTZx9RcXJn9nr-24" value="n1&amp;gt;null,响应(k1,null)" style="text;strokeColor=none;fillColor=none;html=1;fontSize=14;fontStyle=1;verticalAlign=middle;align=center;sketch=0;" vertex="1" parent="1">
          <mxGeometry x="450" y="460" width="100" height="40" as="geometry" />
        </mxCell>
        <mxCell id="MbTcnOZPTZx9RcXJn9nr-25" value="n1&amp;gt;null,响应(k1,null)" style="text;strokeColor=none;fillColor=none;html=1;fontSize=14;fontStyle=1;verticalAlign=middle;align=center;sketch=0;" vertex="1" parent="1">
          <mxGeometry x="650" y="540" width="100" height="40" as="geometry" />
        </mxCell>
        <mxCell id="MbTcnOZPTZx9RcXJn9nr-26" value="n1&amp;lt;n2,不响应" style="text;strokeColor=none;fillColor=none;html=1;fontSize=14;fontStyle=1;verticalAlign=middle;align=center;sketch=0;" vertex="1" parent="1">
          <mxGeometry x="827" y="620" width="100" height="40" as="geometry" />
        </mxCell>
        <mxCell id="MbTcnOZPTZx9RcXJn9nr-27" value="" style="shape=curlyBracket;whiteSpace=wrap;html=1;rounded=1;labelPosition=left;verticalLabelPosition=middle;align=right;verticalAlign=middle;sketch=0;fontSize=14;" vertex="1" parent="1">
          <mxGeometry x="100" y="400" width="20" height="510" as="geometry" />
        </mxCell>
        <mxCell id="MbTcnOZPTZx9RcXJn9nr-28" value="准备阶段" style="text;strokeColor=none;fillColor=none;html=1;fontSize=24;fontStyle=1;verticalAlign=middle;align=center;sketch=0;" vertex="1" parent="1">
          <mxGeometry x="-20" y="640" width="100" height="40" as="geometry" />
        </mxCell>
        <mxCell id="MbTcnOZPTZx9RcXJn9nr-29" value="收到超过半数响应" style="text;strokeColor=none;fillColor=none;html=1;fontSize=15;fontStyle=1;verticalAlign=middle;align=center;sketch=0;" vertex="1" parent="1">
          <mxGeometry x="60" y="920" width="100" height="40" as="geometry" />
        </mxCell>
        <mxCell id="MbTcnOZPTZx9RcXJn9nr-30" value="" style="shape=curlyBracket;whiteSpace=wrap;html=1;rounded=1;labelPosition=left;verticalLabelPosition=middle;align=right;verticalAlign=middle;sketch=0;fontSize=14;" vertex="1" parent="1">
          <mxGeometry x="100" y="1040" width="20" height="240" as="geometry" />
        </mxCell>
        <mxCell id="MbTcnOZPTZx9RcXJn9nr-31" value="[k1,n1,v1]" style="text;strokeColor=none;fillColor=none;html=1;fontSize=14;fontStyle=1;verticalAlign=middle;align=center;sketch=0;" vertex="1" parent="1">
          <mxGeometry x="120" y="1040" width="100" height="40" as="geometry" />
        </mxCell>
        <mxCell id="MbTcnOZPTZx9RcXJn9nr-32" value="n1&amp;lt;n2,写入失败" style="text;strokeColor=none;fillColor=none;html=1;fontSize=14;fontStyle=1;verticalAlign=middle;align=center;sketch=0;" vertex="1" parent="1">
          <mxGeometry x="640" y="1180" width="100" height="40" as="geometry" />
        </mxCell>
        <mxCell id="MbTcnOZPTZx9RcXJn9nr-33" value="n1&amp;lt;n2,写入失败" style="text;strokeColor=none;fillColor=none;html=1;fontSize=14;fontStyle=1;verticalAlign=middle;align=center;sketch=0;" vertex="1" parent="1">
          <mxGeometry x="840" y="1260" width="100" height="40" as="geometry" />
        </mxCell>
        <mxCell id="MbTcnOZPTZx9RcXJn9nr-34" value="提交阶段" style="text;strokeColor=none;fillColor=none;html=1;fontSize=24;fontStyle=1;verticalAlign=middle;align=center;sketch=0;" vertex="1" parent="1">
          <mxGeometry x="-20" y="1100" width="100" height="40" as="geometry" />
        </mxCell>
        <mxCell id="MbTcnOZPTZx9RcXJn9nr-35" value="" style="endArrow=classic;html=1;rounded=0;sketch=1;strokeWidth=3;fontSize=15;" edge="1" parent="1">
          <mxGeometry width="50" height="50" relative="1" as="geometry">
            <mxPoint x="1020" y="680" as="sourcePoint" />
            <mxPoint x="420" y="680" as="targetPoint" />
            <Array as="points" />
          </mxGeometry>
        </mxCell>
        <mxCell id="MbTcnOZPTZx9RcXJn9nr-36" value="" style="endArrow=classic;html=1;rounded=0;sketch=1;strokeWidth=3;fontSize=15;" edge="1" parent="1">
          <mxGeometry width="50" height="50" relative="1" as="geometry">
            <mxPoint x="420" y="720" as="sourcePoint" />
            <mxPoint x="1020" y="720" as="targetPoint" />
            <Array as="points" />
          </mxGeometry>
        </mxCell>
        <mxCell id="MbTcnOZPTZx9RcXJn9nr-37" value="n2&amp;gt;n1,响应(k1,n1)" style="text;strokeColor=none;fillColor=none;html=1;fontSize=14;fontStyle=1;verticalAlign=middle;align=center;sketch=0;" vertex="1" parent="1">
          <mxGeometry x="300" y="700" width="100" height="40" as="geometry" />
        </mxCell>
        <mxCell id="MbTcnOZPTZx9RcXJn9nr-38" value="" style="endArrow=classic;html=1;rounded=0;sketch=1;strokeWidth=3;fontSize=15;" edge="1" parent="1">
          <mxGeometry width="50" height="50" relative="1" as="geometry">
            <mxPoint x="1020" y="760" as="sourcePoint" />
            <mxPoint x="620" y="760" as="targetPoint" />
            <Array as="points" />
          </mxGeometry>
        </mxCell>
        <mxCell id="MbTcnOZPTZx9RcXJn9nr-39" value="" style="endArrow=classic;html=1;rounded=0;sketch=1;strokeWidth=3;fontSize=15;" edge="1" parent="1">
          <mxGeometry width="50" height="50" relative="1" as="geometry">
            <mxPoint x="620" y="800" as="sourcePoint" />
            <mxPoint x="1020" y="800" as="targetPoint" />
            <Array as="points" />
          </mxGeometry>
        </mxCell>
        <mxCell id="MbTcnOZPTZx9RcXJn9nr-40" value="n2&amp;gt;n1,响应(k1,n1)" style="text;strokeColor=none;fillColor=none;html=1;fontSize=14;fontStyle=1;verticalAlign=middle;align=center;sketch=0;" vertex="1" parent="1">
          <mxGeometry x="500" y="780" width="100" height="40" as="geometry" />
        </mxCell>
        <mxCell id="MbTcnOZPTZx9RcXJn9nr-41" value="" style="endArrow=classic;html=1;rounded=0;sketch=1;strokeWidth=3;fontSize=15;" edge="1" parent="1">
          <mxGeometry width="50" height="50" relative="1" as="geometry">
            <mxPoint x="820" y="880" as="sourcePoint" />
            <mxPoint x="1020" y="880" as="targetPoint" />
            <Array as="points" />
          </mxGeometry>
        </mxCell>
        <mxCell id="MbTcnOZPTZx9RcXJn9nr-42" value="" style="endArrow=classic;html=1;rounded=0;sketch=1;strokeWidth=3;fontSize=15;" edge="1" parent="1">
          <mxGeometry width="50" height="50" relative="1" as="geometry">
            <mxPoint x="1020" y="840" as="sourcePoint" />
            <mxPoint x="820" y="840" as="targetPoint" />
            <Array as="points" />
          </mxGeometry>
        </mxCell>
        <mxCell id="MbTcnOZPTZx9RcXJn9nr-43" value="n2&amp;gt;null,响应(k1,null)" style="text;strokeColor=none;fillColor=none;html=1;fontSize=14;fontStyle=1;verticalAlign=middle;align=center;sketch=0;" vertex="1" parent="1">
          <mxGeometry x="690" y="860" width="100" height="40" as="geometry" />
        </mxCell>
        <mxCell id="MbTcnOZPTZx9RcXJn9nr-44" value="(k1,n2)" style="text;strokeColor=none;fillColor=none;html=1;fontSize=14;fontStyle=1;verticalAlign=middle;align=center;sketch=0;" vertex="1" parent="1">
          <mxGeometry x="1020" y="400" width="100" height="40" as="geometry" />
        </mxCell>
        <mxCell id="MbTcnOZPTZx9RcXJn9nr-45" value="(k1,n2)" style="text;strokeColor=none;fillColor=none;html=1;fontSize=14;fontStyle=1;verticalAlign=middle;align=center;sketch=0;" vertex="1" parent="1">
          <mxGeometry x="427" y="960" width="100" height="40" as="geometry" />
        </mxCell>
        <mxCell id="MbTcnOZPTZx9RcXJn9nr-46" value="(k1,n2)" style="text;strokeColor=none;fillColor=none;html=1;fontSize=14;fontStyle=1;verticalAlign=middle;align=center;sketch=0;" vertex="1" parent="1">
          <mxGeometry x="627" y="960" width="100" height="40" as="geometry" />
        </mxCell>
        <mxCell id="MbTcnOZPTZx9RcXJn9nr-47" value="(k1,n2)" style="text;strokeColor=none;fillColor=none;html=1;fontSize=14;fontStyle=1;verticalAlign=middle;align=center;sketch=0;" vertex="1" parent="1">
          <mxGeometry x="827" y="960" width="100" height="40" as="geometry" />
        </mxCell>
        <mxCell id="MbTcnOZPTZx9RcXJn9nr-48" value="" style="shape=curlyBracket;whiteSpace=wrap;html=1;rounded=1;labelPosition=left;verticalLabelPosition=middle;align=right;verticalAlign=middle;sketch=0;fontSize=14;rotation=-180;" vertex="1" parent="1">
          <mxGeometry x="1120" y="400" width="20" height="510" as="geometry" />
        </mxCell>
        <mxCell id="MbTcnOZPTZx9RcXJn9nr-49" value="收到超过半数响应" style="text;strokeColor=none;fillColor=none;html=1;fontSize=15;fontStyle=1;verticalAlign=middle;align=center;sketch=0;" vertex="1" parent="1">
          <mxGeometry x="1070" y="920" width="100" height="40" as="geometry" />
        </mxCell>
        <mxCell id="MbTcnOZPTZx9RcXJn9nr-50" value="准备阶段" style="text;strokeColor=none;fillColor=none;html=1;fontSize=24;fontStyle=1;verticalAlign=middle;align=center;sketch=0;" vertex="1" parent="1">
          <mxGeometry x="1160" y="635" width="100" height="40" as="geometry" />
        </mxCell>
        <mxCell id="MbTcnOZPTZx9RcXJn9nr-51" value="" style="endArrow=classic;html=1;rounded=0;sketch=1;strokeWidth=3;fontSize=15;" edge="1" parent="1">
          <mxGeometry width="50" height="50" relative="1" as="geometry">
            <mxPoint x="420" y="1119.3300000000004" as="sourcePoint" />
            <mxPoint x="220" y="1119.3300000000004" as="targetPoint" />
          </mxGeometry>
        </mxCell>
        <mxCell id="MbTcnOZPTZx9RcXJn9nr-52" value="n1&amp;lt;n2,写入失败" style="text;strokeColor=none;fillColor=none;html=1;fontSize=14;fontStyle=1;verticalAlign=middle;align=center;sketch=0;" vertex="1" parent="1">
          <mxGeometry x="440" y="1100" width="100" height="40" as="geometry" />
        </mxCell>
        <mxCell id="MbTcnOZPTZx9RcXJn9nr-53" value="" style="endArrow=classic;html=1;rounded=0;sketch=1;strokeWidth=3;fontSize=15;" edge="1" parent="1">
          <mxGeometry width="50" height="50" relative="1" as="geometry">
            <mxPoint x="620" y="1200.0000000000005" as="sourcePoint" />
            <mxPoint x="220" y="1200.0000000000005" as="targetPoint" />
          </mxGeometry>
        </mxCell>
        <mxCell id="MbTcnOZPTZx9RcXJn9nr-54" value="" style="endArrow=classic;html=1;rounded=0;sketch=1;strokeWidth=3;fontSize=15;" edge="1" parent="1">
          <mxGeometry width="50" height="50" relative="1" as="geometry">
            <mxPoint x="220" y="1240.0000000000005" as="sourcePoint" />
            <mxPoint x="820" y="1240.0000000000005" as="targetPoint" />
          </mxGeometry>
        </mxCell>
        <mxCell id="MbTcnOZPTZx9RcXJn9nr-55" value="" style="endArrow=classic;html=1;rounded=0;sketch=1;strokeWidth=3;fontSize=15;" edge="1" parent="1">
          <mxGeometry width="50" height="50" relative="1" as="geometry">
            <mxPoint x="820" y="1280.0000000000005" as="sourcePoint" />
            <mxPoint x="220" y="1280.0000000000005" as="targetPoint" />
          </mxGeometry>
        </mxCell>
        <mxCell id="MbTcnOZPTZx9RcXJn9nr-56" value="收到超过半数失败" style="text;strokeColor=none;fillColor=none;html=1;fontSize=15;fontStyle=1;verticalAlign=middle;align=center;sketch=0;" vertex="1" parent="1">
          <mxGeometry x="60" y="1290" width="100" height="40" as="geometry" />
        </mxCell>
        <mxCell id="MbTcnOZPTZx9RcXJn9nr-57" value="" style="endArrow=classic;html=1;rounded=0;sketch=1;strokeWidth=3;fontSize=15;" edge="1" parent="1">
          <mxGeometry width="50" height="50" relative="1" as="geometry">
            <mxPoint x="1020" y="1360.0000000000005" as="sourcePoint" />
            <mxPoint x="420" y="1360.0000000000005" as="targetPoint" />
            <Array as="points" />
          </mxGeometry>
        </mxCell>
        <mxCell id="MbTcnOZPTZx9RcXJn9nr-58" value="" style="endArrow=classic;html=1;rounded=0;sketch=1;strokeWidth=3;fontSize=15;" edge="1" parent="1">
          <mxGeometry width="50" height="50" relative="1" as="geometry">
            <mxPoint x="420" y="1400.0000000000005" as="sourcePoint" />
            <mxPoint x="1020" y="1400.0000000000005" as="targetPoint" />
            <Array as="points" />
          </mxGeometry>
        </mxCell>
        <mxCell id="MbTcnOZPTZx9RcXJn9nr-59" value="" style="endArrow=classic;html=1;rounded=0;sketch=1;strokeWidth=3;fontSize=15;" edge="1" parent="1">
          <mxGeometry width="50" height="50" relative="1" as="geometry">
            <mxPoint x="1020" y="1440.0000000000005" as="sourcePoint" />
            <mxPoint x="620" y="1440.0000000000005" as="targetPoint" />
            <Array as="points" />
          </mxGeometry>
        </mxCell>
        <mxCell id="MbTcnOZPTZx9RcXJn9nr-60" value="" style="endArrow=classic;html=1;rounded=0;sketch=1;strokeWidth=3;fontSize=15;" edge="1" parent="1">
          <mxGeometry width="50" height="50" relative="1" as="geometry">
            <mxPoint x="620" y="1480.0000000000005" as="sourcePoint" />
            <mxPoint x="1020" y="1480.0000000000005" as="targetPoint" />
            <Array as="points" />
          </mxGeometry>
        </mxCell>
        <mxCell id="MbTcnOZPTZx9RcXJn9nr-61" value="n2==n2,写入成功" style="text;strokeColor=none;fillColor=none;html=1;fontSize=14;fontStyle=1;verticalAlign=middle;align=center;sketch=0;" vertex="1" parent="1">
          <mxGeometry x="500" y="1460" width="100" height="40" as="geometry" />
        </mxCell>
        <mxCell id="MbTcnOZPTZx9RcXJn9nr-62" value="" style="endArrow=classic;html=1;rounded=0;sketch=1;strokeWidth=3;fontSize=15;" edge="1" parent="1">
          <mxGeometry width="50" height="50" relative="1" as="geometry">
            <mxPoint x="820" y="1560.0000000000005" as="sourcePoint" />
            <mxPoint x="1020" y="1560.0000000000005" as="targetPoint" />
            <Array as="points" />
          </mxGeometry>
        </mxCell>
        <mxCell id="MbTcnOZPTZx9RcXJn9nr-63" value="" style="endArrow=classic;html=1;rounded=0;sketch=1;strokeWidth=3;fontSize=15;" edge="1" parent="1">
          <mxGeometry width="50" height="50" relative="1" as="geometry">
            <mxPoint x="1020" y="1520.0000000000005" as="sourcePoint" />
            <mxPoint x="820" y="1520.0000000000005" as="targetPoint" />
            <Array as="points" />
          </mxGeometry>
        </mxCell>
        <mxCell id="MbTcnOZPTZx9RcXJn9nr-64" value="" style="shape=curlyBracket;whiteSpace=wrap;html=1;rounded=1;labelPosition=left;verticalLabelPosition=middle;align=right;verticalAlign=middle;sketch=0;fontSize=14;rotation=-180;" vertex="1" parent="1">
          <mxGeometry x="1120" y="1320" width="20" height="280" as="geometry" />
        </mxCell>
        <mxCell id="MbTcnOZPTZx9RcXJn9nr-65" value="提交阶段" style="text;strokeColor=none;fillColor=none;html=1;fontSize=24;fontStyle=1;verticalAlign=middle;align=center;sketch=0;" vertex="1" parent="1">
          <mxGeometry x="1170" y="1440" width="100" height="40" as="geometry" />
        </mxCell>
        <mxCell id="MbTcnOZPTZx9RcXJn9nr-66" value="n2==n2,写入成功" style="text;strokeColor=none;fillColor=none;html=1;fontSize=14;fontStyle=1;verticalAlign=middle;align=center;sketch=0;" vertex="1" parent="1">
          <mxGeometry x="700" y="1540" width="100" height="40" as="geometry" />
        </mxCell>
        <mxCell id="MbTcnOZPTZx9RcXJn9nr-67" value="n2==n2,写入成功" style="text;strokeColor=none;fillColor=none;html=1;fontSize=14;fontStyle=1;verticalAlign=middle;align=center;sketch=0;" vertex="1" parent="1">
          <mxGeometry x="300" y="1380" width="100" height="40" as="geometry" />
        </mxCell>
        <mxCell id="MbTcnOZPTZx9RcXJn9nr-68" value="【k1,n2,v2】" style="text;strokeColor=none;fillColor=none;html=1;fontSize=14;fontStyle=1;verticalAlign=middle;align=center;sketch=0;" vertex="1" parent="1">
          <mxGeometry x="1030" y="1320" width="100" height="40" as="geometry" />
        </mxCell>
        <mxCell id="MbTcnOZPTZx9RcXJn9nr-69" style="edgeStyle=orthogonalEdgeStyle;rounded=0;orthogonalLoop=1;jettySize=auto;html=1;strokeWidth=3;sketch=1;" edge="1" parent="1" source="MbTcnOZPTZx9RcXJn9nr-70">
          <mxGeometry relative="1" as="geometry">
            <mxPoint x="1301" y="1880" as="targetPoint" />
          </mxGeometry>
        </mxCell>
        <mxCell id="MbTcnOZPTZx9RcXJn9nr-70" value="learner" style="rounded=1;whiteSpace=wrap;html=1;strokeWidth=2;fillWeight=4;hachureGap=8;hachureAngle=45;fillColor=#ffe6cc;sketch=0;strokeColor=#d79b00;fontSize=15;fontStyle=1" vertex="1" parent="1">
          <mxGeometry x="1241" y="240" width="120" height="60" as="geometry" />
        </mxCell>
        <mxCell id="MbTcnOZPTZx9RcXJn9nr-71" value="" style="endArrow=classic;html=1;rounded=0;sketch=1;strokeWidth=3;fontSize=15;" edge="1" parent="1">
          <mxGeometry width="50" height="50" relative="1" as="geometry">
            <mxPoint x="1020" y="1640.0000000000005" as="sourcePoint" />
            <mxPoint x="1300" y="1640.0000000000005" as="targetPoint" />
            <Array as="points" />
          </mxGeometry>
        </mxCell>
        <mxCell id="MbTcnOZPTZx9RcXJn9nr-72" value="" style="endArrow=classic;html=1;rounded=0;sketch=1;strokeWidth=3;fontSize=15;" edge="1" parent="1">
          <mxGeometry width="50" height="50" relative="1" as="geometry">
            <mxPoint x="1300" y="1680.0000000000005" as="sourcePoint" />
            <mxPoint x="820" y="1680.0000000000005" as="targetPoint" />
            <Array as="points" />
          </mxGeometry>
        </mxCell>
        <mxCell id="MbTcnOZPTZx9RcXJn9nr-73" value="" style="endArrow=classic;html=1;rounded=0;sketch=1;strokeWidth=3;fontSize=15;" edge="1" parent="1">
          <mxGeometry width="50" height="50" relative="1" as="geometry">
            <mxPoint x="1300" y="1720.0000000000005" as="sourcePoint" />
            <mxPoint x="620" y="1720.0000000000005" as="targetPoint" />
            <Array as="points" />
          </mxGeometry>
        </mxCell>
        <mxCell id="MbTcnOZPTZx9RcXJn9nr-74" value="" style="endArrow=classic;html=1;rounded=0;sketch=1;strokeWidth=3;fontSize=15;" edge="1" parent="1">
          <mxGeometry width="50" height="50" relative="1" as="geometry">
            <mxPoint x="1300" y="1760" as="sourcePoint" />
            <mxPoint x="420" y="1760" as="targetPoint" />
            <Array as="points" />
          </mxGeometry>
        </mxCell>
        <mxCell id="MbTcnOZPTZx9RcXJn9nr-75" value="" style="endArrow=classic;html=1;rounded=0;sketch=1;strokeWidth=3;fontSize=15;" edge="1" parent="1">
          <mxGeometry width="50" height="50" relative="1" as="geometry">
            <mxPoint x="1300" y="1800" as="sourcePoint" />
            <mxPoint x="220" y="1800" as="targetPoint" />
            <Array as="points" />
          </mxGeometry>
        </mxCell>
      </root>
    </mxGraphModel>
  </diagram>
</mxfile>
